<svg xmlns="http://www.w3.org/2000/svg" xmlns:xlink="http://www.w3.org/1999/xlink" width="1268" zoomAndPan="magnify" viewBox="0 0 950.88 503.999982" height="672" preserveAspectRatio="xMidYMid meet" version="1.0"><defs><clipPath id="eb14054d23"><path d="M 0 0.03125 L 950.761719 0.03125 L 950.761719 503.96875 L 0 503.96875 Z M 0 0.03125 " clip-rule="nonzero"/></clipPath><clipPath id="129ae6a81f"><path d="M 0 0.03125 L 950.761719 0.03125 L 950.761719 213.164062 L 0 213.164062 Z M 0 0.03125 " clip-rule="nonzero"/></clipPath><clipPath id="9c4399bd31"><path d="M 0 0.03125 L 950.761719 0.03125 L 950.761719 503.96875 L 0 503.96875 Z M 0 0.03125 " clip-rule="nonzero"/></clipPath></defs><g clip-path="url(#eb14054d23)"><path fill="#ffffff" d="M 0 0.03125 L 950.878906 0.03125 L 950.878906 503.96875 L 0 503.96875 Z M 0 0.03125 " fill-opacity="1" fill-rule="nonzero"/><path fill="#ffffff" d="M 0 0.03125 L 950.878906 0.03125 L 950.878906 503.96875 L 0 503.96875 Z M 0 0.03125 " fill-opacity="1" fill-rule="nonzero"/></g><g clip-path="url(#129ae6a81f)"><path fill="#fe0000" d="M 979.820312 -22.773438 C 930.230469 63.609375 839.058594 95.5625 741.347656 97.421875 C 605.148438 100.238281 470.921875 47.664062 336.582031 28.84375 C 235.152344 14.753906 100.867188 3.597656 7.890625 58.988281 C -29.640625 81.585938 -69.988281 129.203125 -59.675781 213.164062 L 979.820312 213.164062 Z M 979.820312 -22.773438 " fill-opacity="1" fill-rule="nonzero"/></g><g clip-path="url(#9c4399bd31)"><path fill="#fe0000" d="M 1202.355469 -202.984375 C 1035.648438 87.429688 729.132812 194.84375 400.640625 201.09375 C -57.238281 210.566406 -508.484375 33.816406 -960.113281 -29.457031 C -1301.105469 -76.816406 -1752.542969 -114.324219 -2065.121094 71.894531 C -2191.289062 147.859375 -2326.929688 307.9375 -2292.261719 590.207031 L 1202.355469 590.207031 Z M 1202.355469 -202.984375 " fill-opacity="1" fill-rule="nonzero"/></g></svg>